<svg width="849" height="312" viewBox="0 0 849 312" fill="none" xmlns="http://www.w3.org/2000/svg">
<path fill-rule="evenodd" clip-rule="evenodd" d="M592.893 215.227C650.151 228.196 689.099 208.327 715.534 182.195C735.295 162.66 734.181 123.478 733.147 87.0809C732.797 74.788 732.457 62.813 732.933 52.02C734.441 17.8207 751.032 7.75682 759.139 6.99981C682.528 2.08122 593.895 33.0418 571.123 65.7416C548.35 98.4413 548.74 153.743 558.025 182.329L592.893 215.227ZM667.795 62.7105C601.473 100.483 594.209 139.978 602.454 187.332C613.861 113.582 650.767 73.5217 667.795 62.7105Z" fill="#418501"/>
<path d="M667.795 62.7105C601.473 100.483 594.209 139.978 602.454 187.332C613.861 113.582 650.767 73.5217 667.795 62.7105Z" fill="#387400"/>
<path fill-rule="evenodd" clip-rule="evenodd" d="M639.97 210.922C672.077 245.765 707.057 250.398 736.591 245.139C758.669 241.208 775.875 214.659 791.858 189.997C797.256 181.668 802.515 173.554 807.775 166.599C824.441 144.563 840.074 145.473 845.808 148.683C797.155 110.327 724.081 90.3088 693.972 101.61C663.863 112.911 638.793 149.841 631.87 173.09L639.97 210.922ZM759.596 143.871C698.226 138.597 675.31 161.517 659.1 196.763C700.458 152.976 743.33 143.257 759.596 143.871Z" fill="#377100"/>
<path d="M759.596 143.871C698.226 138.597 675.31 161.517 659.1 196.763C700.458 152.976 743.33 143.257 759.596 143.871Z" fill="#2A5700"/>
<path d="M700 165C700 235.5 636.32 301 559 301C481.68 301 419 238.32 419 161C419 83.6801 481.68 21 559 21C597.66 21 641 49.5 648.5 58C656 66.5 649.329 68.4818 635 84C586.5 132.5 578.023 142.093 579 146C580.5 152 625 148.5 675 150C692.5 150.525 700 155 700 165Z" fill="white"/>
<path d="M559.019 54.9289C559.019 58.9289 559.519 148.429 559.519 153.929C559.519 159.429 556.359 157.897 553.019 154.929C549.68 151.96 491.019 92.929 487.519 87.429C484.019 81.929 483.019 78.429 485.019 74.929C487.019 71.429 499.592 60.1069 512.019 54.9289C524.019 49.9289 546.519 45.5956 552.019 47.4289C555.019 48.4289 559.019 49.9289 559.019 54.9289Z" fill="#FF7B23"/>
<path d="M559.019 271.679C559.019 267.679 559.519 178.179 559.519 172.679C559.519 167.179 556.359 168.71 553.019 171.679C549.68 174.647 491.019 233.679 487.519 239.179C484.019 244.679 483.019 248.179 485.019 251.679C487.019 255.179 499.592 266.501 512.019 271.679C524.019 276.679 546.519 281.012 552.019 279.179C555.019 278.179 559.019 276.679 559.019 271.679Z" fill="#FF7B23"/>
<path d="M562.5 51.9289C562.5 55.9289 562 145.429 562 150.929C562 156.429 565.16 154.897 568.5 151.929C571.839 148.96 630.5 89.929 634 84.429C637.5 78.929 638.5 75.429 636.5 71.929C634.5 68.429 621.927 57.1069 609.5 51.9289C597.5 46.9289 575 42.5956 569.5 44.4289C566.5 45.4289 562.5 46.9289 562.5 51.9289Z" fill="#FF7B23"/>
<path d="M562.5 271.679C562.5 267.679 562 178.179 562 172.679C562 167.179 565.16 168.71 568.5 171.679C571.839 174.647 630.5 233.679 634 239.179C637.5 244.679 638.5 248.179 636.5 251.679C634.5 255.179 621.927 266.501 609.5 271.679C597.5 276.679 575 281.012 569.5 279.179C566.5 278.179 562.5 276.679 562.5 271.679Z" fill="#FF7B23"/>
<path d="M481.653 86.9601C484.482 89.7885 548.121 152.721 552.01 156.61C555.9 160.499 552.582 161.651 548.121 161.914C543.661 162.176 460.44 161.914 454.076 160.499C447.712 159.085 444.53 157.317 443.47 153.428C442.409 149.539 443.293 132.643 448.419 120.194C453.369 108.173 466.215 89.1993 471.4 86.6066C474.229 85.1924 478.118 83.4246 481.653 86.9601Z" fill="#FF7B23"/>
<path d="M482.653 238.652C485.482 235.823 549.121 172.891 553.01 169.001C556.9 165.112 553.582 163.961 549.121 163.698C544.661 163.436 461.44 163.698 455.076 165.112C448.712 166.527 445.53 168.294 444.47 172.183C443.409 176.073 444.293 192.969 449.419 205.418C454.369 217.438 467.215 236.412 472.4 239.005C475.229 240.419 479.118 242.187 482.653 238.652Z" fill="#FF7B23"/>
<path d="M639.958 239.652C637.13 236.823 573.49 173.891 569.601 170.001C565.712 166.112 569.03 164.961 573.49 164.698C577.951 164.436 661.172 164.698 667.536 166.112C673.9 167.527 677.082 169.294 678.142 173.183C679.203 177.073 678.318 193.969 673.192 206.418C668.243 218.438 655.397 237.412 650.211 240.005C647.383 241.419 643.494 243.187 639.958 239.652Z" fill="#FF7B23"/>
<path d="M6.72 203.08C6.72 192.04 8.32 182.12 11.52 173.32C14.72 164.52 19.2 157 24.96 150.76C30.72 144.68 37.6 139.96 45.6 136.6C53.76 133.24 62.72 131.56 72.48 131.56C82.4 131.56 91.2 133.32 98.88 136.84C106.72 140.36 113.36 145.32 118.8 151.72C124.08 157.96 128.16 165.56 131.04 174.52C133.92 183.32 135.36 193 135.36 203.56L134.4 216.76H47.76C48.24 223 51.04 227.72 56.16 230.92C61.28 234.12 67.28 235.72 74.16 235.72C80.4 235.72 85.76 234.52 90.24 232.12C94.88 229.72 99.12 226.12 102.96 221.32L130.08 244.84C122.88 254.6 114.48 261.8 104.88 266.44C95.28 270.92 84.48 273.16 72.48 273.16C62.72 273.16 53.76 271.56 45.6 268.36C37.6 265.16 30.64 260.52 24.72 254.44C18.8 248.36 14.24 241 11.04 232.36C7.84 223.72 6.4 213.96 6.72 203.08ZM94.8 184.6C93.84 179.16 91.2 175.08 86.88 172.36C82.72 169.64 78 168.28 72.72 168.28C66.64 168.28 61.52 169.72 57.36 172.6C53.2 175.48 50.8 179.48 50.16 184.6H94.8ZM245.243 268.36V256.84C241.243 261 236.203 264.28 230.123 266.68C224.203 268.92 217.803 270.04 210.923 270.04C202.123 270.04 193.883 268.68 186.203 265.96C178.523 263.24 171.803 259.08 166.043 253.48C160.443 247.88 156.043 240.84 152.843 232.36C149.803 223.72 148.443 213.48 148.763 201.64C149.083 189.96 151.003 179.8 154.523 171.16C158.203 162.36 163.003 155.16 168.923 149.56C174.683 143.96 181.323 139.88 188.843 137.32C196.523 134.6 204.443 133.4 212.603 133.72C219.483 134.2 225.723 135.8 231.323 138.52C236.923 141.24 241.563 144.52 245.243 148.36V136.36H286.763V268.36H245.243ZM215.963 233.32C223.003 233.32 229.003 231.64 233.963 228.28C239.083 224.76 242.363 219.32 243.803 211.96C243.803 211.48 243.883 210.44 244.043 208.84C244.203 207.08 244.283 205.96 244.283 205.48C244.283 194.28 241.643 185.64 236.363 179.56C231.083 173.48 224.603 170.44 216.923 170.44C210.363 170.12 204.283 172.6 198.683 177.88C193.083 183 190.283 190.92 190.283 201.64C190.283 212.2 192.683 220.12 197.483 225.4C202.443 230.68 208.602 233.32 215.963 233.32ZM362.239 212.92C362.239 218.04 362.639 221.88 363.439 224.44C364.239 227 365.999 228.76 368.719 229.72C370.479 230.36 372.319 230.6 374.239 230.44C376.319 230.28 379.279 229.48 383.119 228.04L390.079 264.76C383.839 267.64 376.239 269.48 367.279 270.28C358.319 271.08 350.319 270.04 343.279 267.16C334.959 263.8 329.119 258.36 325.759 250.84C322.399 243.32 320.719 233.24 320.719 220.6V173.8H299.119V136.36H320.719V90.28H362.239V136.36H389.119V173.8H362.239V212.92Z" fill="white"/>
</svg>
