<svg width="50" height="50" viewBox="0 0 50 50" fill="none" xmlns="http://www.w3.org/2000/svg">
<path fill-rule="evenodd" clip-rule="evenodd" d="M36.1493 21.6305C35.2871 20.6135 35.3295 20.0277 35.4585 19.8619C35.7901 19.5855 36.4589 18.9499 36.481 18.6183C36.2875 18.5262 35.8454 18.2701 35.6243 17.9827C35.4953 18.0288 35.1821 18.2701 34.9611 18.867C34.8321 19.2447 34.4802 20.0332 34.1044 20.1659C33.6346 20.3317 31.258 20.3593 30.4842 19.2539L30.65 17.1813C29.5723 17.4577 27.4444 17.43 26.643 15.0258C26.0019 13.1024 27.5918 11.9768 28.4669 11.6544C27.9234 11.5715 26.4219 11.4056 24.7638 11.4056C9.75816 11.4056 4.23121 19.4197 4.23121 25.3059C4.23121 30.6947 10.753 39.5931 24.7638 39.5931C40.7643 39.5931 46.6229 30.5023 46.6229 25.3059C46.6229 21.2713 44.4398 18.867 44.4398 19.0052C44.3292 20.1659 43.9423 21.3818 42.6711 21.8239C41.3999 22.2661 40.3222 21.6858 40.0182 21.4371C39.6826 21.6454 39.4633 21.8439 39.2772 22.0126C39.0187 22.2466 38.8241 22.4229 38.4707 22.4872C37.8627 22.5977 36.6744 22.045 36.1493 21.6305ZM7.87899 23.5649C5.99983 26.1626 8.1277 28.5392 9.9516 29.3959C11.361 32.2422 13.8205 32.1317 15.6167 31.9383C15.8102 33.928 16.6668 34.8123 18.2144 35.7242C19.7619 36.6362 22.4149 36.4151 23.1057 36.3322C23.7966 36.2493 25.1783 36.2769 26.5601 36.6638C27.9418 37.0507 30.0697 36.9954 31.3962 36.6638C32.7226 36.3322 34.0491 35.061 34.5189 34.5912C34.841 34.2691 35.358 33.921 35.8739 33.5736C36.1104 33.4144 36.3467 33.2553 36.5639 33.0989C36.7619 32.9563 37.0191 32.8114 37.3034 32.6512C38.0106 32.2527 38.886 31.7595 39.4379 30.9711L39.4412 30.9664C40.212 29.8651 40.3497 29.6685 40.2393 27.0469C40.1287 24.4216 38.7746 23.3991 37.6969 22.653C37.1697 22.288 36.6094 22.128 35.8835 21.9207C35.1254 21.7042 34.1866 21.4361 32.9161 20.8291C30.429 19.6408 29.1025 19.8342 27.3339 20.2211C27.5549 19.3921 27.3891 17.3471 25.3994 16.7115C25.3758 16.7115 25.3442 16.639 25.2922 16.52C25.0399 15.9419 24.3088 14.2669 21.6964 14.4731C19.0711 12.2623 16.6668 13.3677 15.0364 14.9705C12.7703 14.6665 10.8912 16.3523 10.4214 18.4249C8.92911 18.9499 6.85651 20.5527 7.87899 23.5649Z" fill="white"/>
<path fill-rule="evenodd" clip-rule="evenodd" d="M10.9741 28.3181C7.56846 27.2127 8.15534 25.0296 9.2331 23.7031C8.56986 21.7687 8.56986 20.1382 11.5268 19.4197C11.8584 16.8773 12.9914 16.0759 15.5615 16.1865C17.6893 14.0586 19.2092 13.8375 21.2818 15.7167C23.812 15.4912 24.0713 16.3558 24.3858 17.4046C24.4183 17.5127 24.4513 17.6229 24.4875 17.734C26.0074 18.0933 26.4495 19.0881 25.9245 20.6633C24.4875 21.0502 22.1385 22.5977 21.4477 23.3439C21.2824 23.5223 21.1125 23.7102 20.943 23.8978L20.9091 23.9353C20.3818 24.5193 19.8632 25.0936 19.5132 25.3612C19.3783 25.4644 19.1315 25.6406 18.8385 25.8498L18.8383 25.85C18.1116 26.369 17.1004 27.0911 16.805 27.4062C16.3905 27.8483 15.4509 29.0919 15.5338 30.5842C15.2767 30.6121 15.0558 30.6412 14.8576 30.6673L14.8575 30.6673C14.0756 30.7702 13.6466 30.8267 12.7427 30.5842C11.6097 30.2802 11.057 29.3959 10.9741 28.3181ZM11.9966 22.1003C11.0017 22.8741 11.5268 24.5322 11.8584 24.5322C12.3175 24.592 12.3585 24.5221 12.4083 24.437C12.4275 24.4043 12.448 24.3694 12.494 24.3387C12.5773 24.2832 12.6048 24.0325 12.636 23.7477C12.667 23.4654 12.7017 23.1496 12.798 22.957C12.9914 22.5701 13.323 22.1003 14.8153 22.1003C14.77 20.4932 15.3922 20.1097 15.877 19.811C15.9841 19.745 16.0844 19.6832 16.1694 19.6132C16.3658 19.4514 16.7083 19.367 17.0404 19.2851C17.5027 19.1711 17.9448 19.062 17.9448 18.7565C17.9448 18.2314 17.5788 18.1762 16.1694 18.4249C14.76 18.6736 13.6823 20.2488 13.6823 21.216C13.1849 21.2713 12.9914 21.3265 11.9966 22.1003ZM18.5736 23.2057C16.5287 23.3715 16.5839 25.2783 16.805 25.9139C17.0537 26.2455 17.109 26.2731 17.3853 26.2179C17.6617 26.1626 17.7446 26.0244 17.717 25.4994C17.6893 24.9743 17.8275 24.4216 19.7343 24.2005C19.5409 22.5511 20.9091 21.9621 21.4477 21.9621C21.9862 21.9621 22.2214 21.0502 21.4477 20.8291C20.6739 20.608 18.9882 21.1883 18.5736 23.2057Z" fill="#F5E8D4"/>
<path fill-rule="evenodd" clip-rule="evenodd" d="M9.9516 29.3959C8.1277 28.5392 5.99983 26.1626 7.87899 23.5649C6.85651 20.5527 8.92911 18.9499 10.4214 18.4249C10.8912 16.3523 12.7703 14.6665 15.0364 14.9705C16.6668 13.3677 19.0711 12.2623 21.6964 14.4731C24.3088 14.2669 25.0399 15.9419 25.2922 16.52C25.3442 16.639 25.3758 16.7115 25.3994 16.7115C27.3891 17.3471 27.5549 19.3921 27.3339 20.2211C29.1025 19.8342 30.429 19.6408 32.9161 20.8291C34.1866 21.4361 35.1254 21.7042 35.8835 21.9207C36.6094 22.128 37.1697 22.288 37.6969 22.653C38.7746 23.3991 40.1287 24.4216 40.2393 27.0469C40.3497 29.6685 40.212 29.8651 39.4412 30.9664L39.4379 30.9711C38.886 31.7595 38.0106 32.2527 37.3034 32.6512C37.0191 32.8114 36.7619 32.9563 36.5639 33.0989C36.3467 33.2553 36.1104 33.4144 35.8739 33.5736C35.358 33.921 34.841 34.2691 34.5189 34.5912C34.0491 35.061 32.7226 36.3322 31.3962 36.6638C30.0697 36.9954 27.9418 37.0507 26.5601 36.6638C25.1783 36.2769 23.7966 36.2493 23.1057 36.3322C22.4149 36.4151 19.7619 36.6362 18.2144 35.7242C16.6668 34.8123 15.8102 33.928 15.6167 31.9383C13.8205 32.1317 11.361 32.2422 9.9516 29.3959ZM9.2331 23.7031C8.15534 25.0296 7.56846 27.2127 10.9741 28.3181C11.057 29.3959 11.6097 30.2802 12.7427 30.5842C13.6466 30.8267 14.0756 30.7702 14.8575 30.6673L14.8576 30.6673C15.0558 30.6412 15.2767 30.6121 15.5338 30.5842C15.4509 29.0919 16.3905 27.8483 16.805 27.4062C17.1004 27.0911 18.1116 26.369 18.8383 25.85L18.8385 25.8498C19.1315 25.6406 19.3783 25.4644 19.5132 25.3612C19.8632 25.0936 20.3818 24.5193 20.9091 23.9353L20.943 23.8978C21.1125 23.7102 21.2824 23.5223 21.4477 23.3439C22.1385 22.5977 24.4875 21.0502 25.9245 20.6633C26.4495 19.0881 26.0074 18.0933 24.4875 17.734C24.4513 17.6229 24.4183 17.5127 24.3858 17.4046C24.0713 16.3558 23.812 15.4912 21.2818 15.7167C19.2092 13.8375 17.6893 14.0586 15.5615 16.1865C12.9914 16.0759 11.8584 16.8773 11.5268 19.4197C8.56986 20.1382 8.56986 21.7687 9.2331 23.7031ZM22.8294 33.5687C21.0884 33.6793 18.7118 33.3753 16.7497 32.2146C17.3927 34.3576 18.8562 34.7157 19.7439 34.9328L19.744 34.9329C19.8865 34.9677 20.0142 34.999 20.1212 35.0334C20.6388 35.1997 22.3686 35.1682 23.6059 35.1457H23.606C24.2181 35.1346 24.7097 35.1256 24.8744 35.1439C25.1374 35.1731 25.7634 35.2796 26.5074 35.4061L26.5075 35.4061C27.1708 35.5189 27.9278 35.6477 28.6051 35.7519C30.0421 35.9729 31.6172 35.2821 32.2528 34.9505C32.7405 34.696 33.8139 33.742 34.4243 33.1994C34.6095 33.0348 34.7521 32.9081 34.8229 32.8502C34.9564 32.7409 35.3567 32.4876 35.855 32.1723C36.4908 31.77 37.2861 31.2667 37.8903 30.8329C38.9681 30.0591 39.1615 29.009 39.1615 27.9865C38.8852 28.5945 36.3152 30.142 35.4308 30.5289C34.957 30.7362 34.3563 31.237 33.7093 31.7764C33.1489 32.2436 32.5538 32.7397 31.9765 33.0989C30.7329 33.8727 28.6603 34.1767 27.2786 33.8451C25.8969 33.5134 24.5704 33.4582 22.8294 33.5687ZM22.9123 32.3252C19.5409 32.712 17.7446 31.7725 17.1366 30.3355C16.7324 29.099 17.4126 28.5172 17.9448 28.062C18.0311 27.9882 18.1135 27.9177 18.1868 27.8483C18.3923 27.6536 18.7629 27.4081 19.1727 27.1367C19.8099 26.7146 20.5418 26.2298 20.895 25.7757C21.4753 25.0296 23.465 23.1504 24.7362 22.4872C26.0074 21.8239 28.3563 21.0502 29.9315 21.1331C31.1619 21.1978 32.3923 21.7684 33.2935 22.1863C33.546 22.3034 33.7726 22.4085 33.9662 22.4872C34.2276 22.5934 34.559 22.7044 34.9197 22.8252L34.9199 22.8253L34.9199 22.8253C35.7796 23.1133 36.8058 23.457 37.4482 23.9242C38.3601 24.5874 38.9128 25.223 38.8576 26.0244C38.8023 26.8258 38.1114 27.9865 36.9508 28.3457C36.0682 28.6189 34.7541 29.6112 33.92 30.2411C33.6572 30.4395 33.442 30.602 33.303 30.6947C33.191 30.7694 33.0564 30.8831 32.8948 31.0197C32.2188 31.5909 31.0704 32.5613 29.1301 32.7397C28.0503 32.839 27.3663 32.6874 26.6349 32.5253C25.7378 32.3266 24.7695 32.112 22.9123 32.3252Z" fill="black"/>
<path d="M11.8584 24.5322C11.5268 24.5322 11.0017 22.8741 11.9966 22.1003C12.9914 21.3265 13.1849 21.2713 13.6823 21.216C13.6823 20.2488 14.76 18.6736 16.1694 18.4249C17.5788 18.1762 17.9448 18.2314 17.9448 18.7565C17.9448 19.062 17.5027 19.1711 17.0404 19.2851C16.7083 19.367 16.3658 19.4514 16.1694 19.6132C16.0844 19.6832 15.9841 19.745 15.877 19.811C15.3922 20.1097 14.77 20.4932 14.8153 22.1003C13.323 22.1003 12.9914 22.5701 12.798 22.957C12.7017 23.1496 12.667 23.4654 12.636 23.7477C12.6048 24.0325 12.5773 24.2832 12.494 24.3387C12.448 24.3694 12.4275 24.4043 12.4083 24.437C12.3585 24.5221 12.3175 24.592 11.8584 24.5322Z" fill="#EBD5B4"/>
<path d="M16.805 25.9139C16.5839 25.2783 16.5287 23.3715 18.5736 23.2057C18.9882 21.1883 20.6739 20.608 21.4477 20.8291C22.2214 21.0502 21.9862 21.9621 21.4477 21.9621C20.9091 21.9621 19.5409 22.5511 19.7343 24.2005C17.8275 24.4216 17.6893 24.9743 17.717 25.4994C17.7446 26.0244 17.6617 26.1626 17.3853 26.2179C17.109 26.2731 17.0537 26.2455 16.805 25.9139Z" fill="#EBD5B4"/>
<path d="M16.7497 32.2146C18.7118 33.3753 21.0884 33.6793 22.8294 33.5687C24.5704 33.4582 25.8969 33.5134 27.2786 33.8451C28.6603 34.1767 30.7329 33.8727 31.9765 33.0989C32.5538 32.7397 33.1489 32.2436 33.7093 31.7764C34.3563 31.237 34.957 30.7362 35.4308 30.5289C36.3152 30.142 38.8852 28.5945 39.1615 27.9865C39.1615 29.009 38.9681 30.0591 37.8903 30.8329C37.2861 31.2667 36.4908 31.77 35.855 32.1723C35.3567 32.4876 34.9564 32.7409 34.8229 32.8502C34.7521 32.9081 34.6095 33.0348 34.4243 33.1994C33.8139 33.742 32.7405 34.696 32.2528 34.9505C31.6172 35.2821 30.0421 35.9729 28.6051 35.7519C27.9278 35.6477 27.1708 35.5189 26.5075 35.4061L26.5074 35.4061C25.7634 35.2796 25.1374 35.1731 24.8744 35.1439C24.7097 35.1256 24.2181 35.1346 23.606 35.1457H23.6059C22.3686 35.1682 20.6388 35.1997 20.1212 35.0334C20.0142 34.999 19.8865 34.9677 19.744 34.9329L19.7439 34.9328C18.8562 34.7157 17.3927 34.3576 16.7497 32.2146Z" fill="#722F03"/>
<path fill-rule="evenodd" clip-rule="evenodd" d="M17.1366 30.3355C17.7446 31.7725 19.5409 32.712 22.9123 32.3252C24.7695 32.112 25.7378 32.3266 26.6349 32.5253C27.3663 32.6874 28.0503 32.839 29.1301 32.7397C31.0704 32.5613 32.2188 31.5909 32.8948 31.0197C33.0564 30.8831 33.191 30.7694 33.303 30.6947C33.442 30.602 33.6572 30.4395 33.92 30.2411C34.7541 29.6112 36.0682 28.6189 36.9508 28.3457C38.1114 27.9865 38.8023 26.8258 38.8576 26.0244C38.9128 25.223 38.3601 24.5874 37.4482 23.9242C36.8058 23.457 35.7796 23.1133 34.9199 22.8253L34.9199 22.8253L34.9197 22.8252C34.559 22.7044 34.2276 22.5934 33.9662 22.4872C33.7726 22.4085 33.546 22.3034 33.2935 22.1863C32.3923 21.7684 31.1619 21.1978 29.9315 21.1331C28.3563 21.0502 26.0074 21.8239 24.7362 22.4872C23.465 23.1504 21.4753 25.0296 20.895 25.7757C20.5418 26.2298 19.8099 26.7146 19.1727 27.1367C18.7629 27.4081 18.3923 27.6536 18.1868 27.8483C18.1135 27.9177 18.0311 27.9882 17.9448 28.062C17.4126 28.5172 16.7324 29.099 17.1366 30.3355ZM26.6706 29.4788C26.7812 28.9261 23.7966 27.7931 23.6032 27.7378C23.5914 27.7344 23.5759 27.7298 23.5569 27.7241C23.2621 27.6357 22.1411 27.2998 21.7516 27.7931C21.5582 28.097 21.6411 28.5668 22.4425 28.705C22.9635 28.7948 24.162 29.3402 25.0432 29.7412L25.0433 29.7412L25.0434 29.7413L25.0435 29.7413L25.0436 29.7414L25.0437 29.7414L25.0437 29.7414C25.5177 29.9571 25.8997 30.131 26.035 30.1696C26.4219 30.2802 26.5601 30.0315 26.6706 29.4788ZM27.3615 25.6652C27.0575 25.527 25.4271 25.0019 25.0125 25.4441C24.7915 25.8586 25.1231 26.3284 25.4823 26.4113C25.6009 26.4387 26.2344 26.7069 27.0518 27.0531L27.0519 27.0531C28.7108 27.7556 31.1271 28.7788 31.5343 28.7603C32.1089 28.7342 32.0417 28.3131 31.986 27.9637L31.982 27.9391L31.9802 27.9273L31.9786 27.9173L31.9778 27.9119L31.9765 27.9036C31.9293 27.5966 28.8151 26.2808 27.7201 25.8181L27.7201 25.8181L27.7199 25.818L27.7194 25.8178L27.7194 25.8178L27.7186 25.8175C27.5329 25.739 27.4056 25.6852 27.3615 25.6652ZM35.7625 25.8863C35.6415 25.3336 31.0093 23.7584 30.65 23.6478C30.6143 23.6369 30.5682 23.6218 30.5137 23.6039L30.5136 23.6039C30.0194 23.4421 28.8319 23.0535 28.384 23.4268C28.08 23.7307 28.2182 24.0347 28.3287 24.2005C28.4392 24.3663 29.821 24.8085 30.2908 24.919C30.7606 25.0296 33.2201 25.9968 33.5793 26.2179C33.9386 26.439 35.1545 26.9087 35.4308 26.7429C35.7072 26.5771 35.8835 26.439 35.7625 25.8863Z" fill="#964B18"/>
<path d="M23.6032 27.7378C23.7966 27.7931 26.7812 28.9261 26.6706 29.4788C26.5601 30.0315 26.4219 30.2802 26.035 30.1696C25.8997 30.131 25.5177 29.9571 25.0437 29.7414L25.0437 29.7414L25.0436 29.7414L25.0435 29.7413L25.0434 29.7413L25.0433 29.7412L25.0432 29.7412C24.162 29.3402 22.9635 28.7948 22.4425 28.705C21.6411 28.5668 21.5582 28.097 21.7516 27.7931C22.1411 27.2998 23.2621 27.6357 23.5569 27.7241C23.5759 27.7298 23.5914 27.7344 23.6032 27.7378Z" fill="#4B2003"/>
<path d="M25.0125 25.4441C25.4271 25.0019 27.0575 25.527 27.3615 25.6652C27.4056 25.6852 27.5329 25.739 27.7186 25.8175L27.7194 25.8178L27.7194 25.8178L27.7199 25.818L27.7201 25.8181L27.7201 25.8181C28.8151 26.2808 31.9293 27.5966 31.9765 27.9036L31.9778 27.9119L31.9786 27.9173L31.9802 27.9273L31.982 27.9391L31.986 27.9637C32.0417 28.3131 32.1089 28.7342 31.5343 28.7603C31.1271 28.7788 28.7108 27.7556 27.0519 27.0531L27.0518 27.0531C26.2344 26.7069 25.6009 26.4387 25.4823 26.4113C25.1231 26.3284 24.7915 25.8586 25.0125 25.4441Z" fill="#4B2003"/>
<path d="M30.65 23.6478C31.0093 23.7584 35.6415 25.3336 35.7625 25.8863C35.8835 26.439 35.7072 26.5771 35.4308 26.7429C35.1545 26.9087 33.9386 26.439 33.5793 26.2179C33.2201 25.9968 30.7606 25.0296 30.2908 24.919C29.821 24.8085 28.4392 24.3663 28.3287 24.2005C28.2182 24.0347 28.08 23.7307 28.384 23.4268C28.8319 23.0535 30.0194 23.4421 30.5136 23.6039L30.5137 23.6039C30.5682 23.6218 30.6143 23.6369 30.65 23.6478Z" fill="#4B2003"/>
<path fill-rule="evenodd" clip-rule="evenodd" d="M31.5343 9.38831C33.2753 7.92367 35.7625 8.36582 36.702 10.4937C38.6641 11.1017 38.8023 12.3452 38.7746 13.1466C40.6262 12.5387 41.8974 13.3677 42.3119 14.6389C43.9479 15.059 44.3384 16.3983 44.3292 17.0155C46.2637 18.867 47.7559 21.52 47.8388 25.3059C47.9217 29.0919 43.6107 40.8367 24.7638 40.8367C5.91693 40.8367 2.96001 27.5443 2.96001 25.3059C3.02449 20.2488 7.47553 10.1344 24.7638 10.1344C27.9474 10.1344 28.9459 10.2986 29.0472 10.3807C29.7311 9.60026 30.8366 9.31078 31.5343 9.38831ZM35.4585 19.8619C35.3295 20.0277 35.2871 20.6135 36.1493 21.6305C36.6744 22.045 37.8627 22.5977 38.4707 22.4872C38.8241 22.4229 39.0187 22.2466 39.2772 22.0126C39.4633 21.8439 39.6826 21.6454 40.0182 21.4371C40.3222 21.6858 41.3999 22.2661 42.6711 21.8239C43.9423 21.3818 44.3292 20.1659 44.4398 19.0052C44.4398 18.867 46.6229 21.2713 46.6229 25.3059C46.6229 30.5023 40.7643 39.5931 24.7638 39.5931C10.753 39.5931 4.23121 30.6947 4.23121 25.3059C4.23121 19.4197 9.75816 11.4056 24.7638 11.4056C26.4219 11.4056 27.9234 11.5715 28.4669 11.6544C27.5918 11.9768 26.0019 13.1024 26.643 15.0258C27.4444 17.43 29.5723 17.4577 30.65 17.1813L30.4842 19.2539C31.258 20.3593 33.6346 20.3317 34.1044 20.1659C34.4802 20.0332 34.8321 19.2447 34.9611 18.867C35.1821 18.2701 35.4953 18.0288 35.6243 17.9827C35.8454 18.2701 36.2875 18.5262 36.481 18.6183C36.4589 18.9499 35.7901 19.5855 35.4585 19.8619ZM29.517 12.5663C29.9315 10.9635 30.3184 10.6595 31.8936 10.8253C32.7779 9.38831 34.9267 8.89088 35.8835 11.4333C37.31 11.8202 37.6416 12.7321 37.5034 13.6164C35.8835 14.0309 34.6847 15.0354 34.9611 16.6839C34.3016 17.4398 34.0822 18.0553 33.9322 18.476C33.8245 18.778 33.7526 18.9796 33.5793 19.0605C33.1648 19.2539 31.8107 18.7565 31.6725 18.6183C31.562 18.5078 31.7738 16.4352 31.8936 15.4127C31.5343 15.0258 30.8158 15.385 30.3737 15.7996C29.9315 16.2141 28.0247 16.1312 27.8036 14.6389C27.6268 13.4451 28.8722 12.7597 29.517 12.5663ZM41.2341 15.4127C40.792 13.8099 39.659 13.6164 38.4707 15.0258C38.1667 14.8876 36.481 14.6389 36.2875 15.7996C36.0941 16.9602 36.702 17.5129 37.6969 17.9827C37.6969 18.7841 37.6969 18.867 36.702 20.2211C36.8789 20.818 37.6416 21.2805 38.0009 21.4371C38.4263 21.0778 39.4806 20.3206 40.2946 20.1659C40.8749 20.7738 41.4829 20.8291 42.3119 20.6633C43.1409 20.4975 43.5278 19.0605 42.6711 17.9827C43.4449 16.7115 42.6711 15.6061 41.2341 15.4127Z" fill="black"/>
<path d="M38.4707 15.0258C39.659 13.6164 40.792 13.8099 41.2341 15.4127C42.6711 15.6061 43.4449 16.7115 42.6711 17.9827C43.5278 19.0605 43.1409 20.4975 42.3119 20.6633C41.4829 20.8291 40.8749 20.7738 40.2946 20.1659C39.4806 20.3206 38.4263 21.0778 38.0009 21.4371C37.6416 21.2805 36.8789 20.818 36.702 20.2211C37.6969 18.867 37.6969 18.7841 37.6969 17.9827C36.702 17.5129 36.0941 16.9602 36.2875 15.7996C36.481 14.6389 38.1667 14.8876 38.4707 15.0258Z" fill="#5D7241"/>
<path d="M29.517 12.5663C29.9315 10.9635 30.3184 10.6595 31.8936 10.8253C32.7779 9.38831 34.9267 8.89088 35.8835 11.4333C37.31 11.8202 37.6416 12.7321 37.5034 13.6164C35.8835 14.0309 34.6847 15.0354 34.9611 16.6839C34.3016 17.4398 34.0822 18.0553 33.9322 18.476C33.8245 18.778 33.7526 18.9796 33.5793 19.0605C33.1648 19.2539 31.8107 18.7565 31.6725 18.6183C31.562 18.5078 31.7738 16.4352 31.8936 15.4127C31.5343 15.0258 30.8158 15.385 30.3737 15.7996C29.9315 16.2141 28.0247 16.1312 27.8036 14.6389C27.6268 13.4451 28.8722 12.7597 29.517 12.5663Z" fill="#537328"/>
</svg>
