<svg width="50" height="50" viewBox="0 0 50 50" fill="none" xmlns="http://www.w3.org/2000/svg">
<path fill-rule="evenodd" clip-rule="evenodd" d="M12.8405 17.7319L12.5051 16.7132C9.81515 12.8505 13.4258 10.0987 15.2282 9.50549C16.8887 7.33767 19.3633 6.05995 21.7268 6.55587C22.2075 5.90545 25.0431 3.4377 28.5243 5.04226C33.1494 3.08564 35.089 7.65849 35.1785 9.2503L43.312 33.9612C44.502 37.5764 37.2416 40.9678 33.4627 42.2116C29.6403 43.4697 21.7241 45.0736 20.6386 41.424L19.3662 37.5581C12.235 39.9052 10.7648 35.4385 10.077 33.3488L9.16561 30.5799L8.23705 27.7588C6.06182 21.1501 10.928 19.8379 13.4337 19.5343L12.8405 17.7319ZM14.517 22.8256L13.9066 20.971C10.3124 21.6618 8.30668 23.1326 9.4201 26.5153L10.6023 30.107L11.7802 33.6857C12.8463 36.9247 15.0895 37.0549 18.8933 36.1214L18.3 34.319C17.0201 34.7403 14.5819 35.6007 13.3762 32.4655L12.5164 29.8534L11.3385 26.2747C10.7969 24.6291 11.594 23.0928 14.517 22.8256ZM17.8444 32.9346L14.9555 24.1578C13.0936 24.3942 12.4224 24.8178 12.964 26.4635L13.9958 29.5981L14.675 31.6616C15.423 33.9342 16.8521 33.1743 17.8444 32.9346ZM32.9599 40.64C29.6556 41.7276 22.8388 43.2707 22.0065 40.7422L21.0178 37.7382L15.5754 21.2034L14.3803 17.5725C14.6898 18.5129 21.3759 16.5727 24.6803 15.4851C27.9846 14.3975 34.516 11.9871 34.2065 11.0468L35.4015 14.6776L40.8439 31.2125L41.8327 34.2165C42.665 36.745 36.2643 39.5524 32.9599 40.64ZM13.2084 14.7157C13.6555 16.074 13.9213 17.0577 24.1771 14.0005C34.1033 10.7333 33.4756 8.82645 33.2435 8.12117C32.5901 6.13594 30.8174 5.76401 28.5958 6.84267C26.3559 5.84284 24.5479 5.6273 22.2942 8.27988C18.6521 7.85741 18.1019 8.47277 16.1881 10.9266C14.1774 11.4147 12.6495 13.0178 13.2084 14.7157Z" fill="black"/>
<path d="M13.9066 20.971L14.517 22.8256C11.594 23.0928 10.7969 24.6291 11.3385 26.2747L12.5164 29.8534L13.3762 32.4655C14.5819 35.6007 17.0201 34.7403 18.3 34.319L18.8933 36.1214C15.0895 37.0549 12.8463 36.9247 11.7802 33.6857L10.6023 30.107L9.4201 26.5153C8.30668 23.1326 10.3124 21.6618 13.9066 20.971Z" fill="#D0D1D7"/>
<path d="M22.0065 40.7422C22.8388 43.2707 29.6556 41.7276 32.9599 40.64C36.2643 39.5524 42.665 36.745 41.8327 34.2165L40.8439 31.2125C41.1913 32.2852 39.9065 35.0821 31.9884 37.6883C24.0703 40.2945 21.3755 38.8075 21.0178 37.7382L22.0065 40.7422Z" fill="#D0D1D7"/>
<path fill-rule="evenodd" clip-rule="evenodd" d="M15.5754 21.2034L21.0178 37.7382C21.3755 38.8075 24.0703 40.2945 31.9884 37.6883C39.9065 35.0821 41.1913 32.2852 40.8439 31.2125L35.4015 14.6776C35.5678 15.1827 33.9176 16.8453 25.9871 19.4555C18.0567 22.0658 15.7416 21.7084 15.5754 21.2034ZM21.7019 24.6876C21.5999 24.0553 21.14 22.8749 20.116 23.2119C19.1234 23.5387 19.2583 24.6523 19.4045 25.0964C19.5506 25.5404 22.6624 35.1703 22.8952 35.7017C23.128 36.233 23.5777 36.8956 24.5181 36.5861C25.4584 36.2766 25.2183 35.3713 25.0894 34.9794L21.7019 24.6876ZM34.9454 20.3285C34.8434 19.6962 34.3835 18.5158 33.3596 18.8529C32.3669 19.1796 32.5019 20.2932 32.648 20.7373C32.7942 21.1814 35.7942 30.4717 36.027 31.003C36.2598 31.5344 36.7095 32.197 37.6498 31.8875C38.5902 31.5779 38.3501 30.6726 38.2212 30.2808L34.9454 20.3285ZM28.7272 22.7227C28.6252 22.0903 28.1653 20.91 27.1413 21.247C26.1487 21.5737 26.2837 22.6873 26.4298 23.1314C26.576 23.5755 29.8941 33.8323 30.1269 34.3636C30.3597 34.895 30.8094 35.5576 31.7498 35.2481C32.6901 34.9386 32.45 34.0332 32.3211 33.6414L28.7272 22.7227Z" fill="#F0B323"/>
<path d="M20.116 23.2119C21.14 22.8749 21.5999 24.0553 21.7019 24.6876L25.0894 34.9794C25.2183 35.3713 25.4584 36.2766 24.5181 36.5861C23.5777 36.8956 23.128 36.233 22.8952 35.7017C22.6624 35.1703 19.5506 25.5404 19.4045 25.0964C19.2583 24.6523 19.1234 23.5387 20.116 23.2119Z" fill="#F0BF4B"/>
<path d="M27.1413 21.247C28.1653 20.91 28.6252 22.0903 28.7272 22.7227L32.3211 33.6414C32.45 34.0332 32.6901 34.9386 31.7498 35.2481C30.8094 35.5576 30.3597 34.895 30.1269 34.3636C29.8941 33.8323 26.576 23.5755 26.4298 23.1314C26.2837 22.6873 26.1487 21.5737 27.1413 21.247Z" fill="#F0BF4B"/>
<path d="M33.3596 18.8529C34.3835 18.5158 34.8434 19.6962 34.9454 20.3285L38.2212 30.2808C38.3501 30.6726 38.5902 31.5779 37.6498 31.8875C36.7095 32.197 36.2598 31.5344 36.027 31.003C35.7942 30.4717 32.7942 21.1814 32.648 20.7373C32.5019 20.2932 32.3669 19.1796 33.3596 18.8529Z" fill="#F0BF4B"/>
<path d="M24.6803 15.4851C21.3759 16.5727 14.6898 18.5129 14.3803 17.5725L15.5754 21.2034C15.7416 21.7084 18.0567 22.0658 25.9871 19.4555C33.9176 16.8453 35.5678 15.1827 35.4015 14.6776L34.2065 11.0468C34.516 11.9871 27.9846 14.3975 24.6803 15.4851Z" fill="white"/>
<path d="M24.1771 14.0005C13.9213 17.0577 13.6555 16.074 13.2084 14.7157C12.6495 13.0178 14.1774 11.4147 16.1881 10.9266C18.1019 8.47277 18.6521 7.85741 22.2942 8.27988C24.5479 5.6273 26.3559 5.84284 28.5958 6.84267C30.8174 5.76401 32.5901 6.13594 33.2435 8.12117C33.4756 8.82645 34.1033 10.7333 24.1771 14.0005Z" fill="#FFFCE9"/>
</svg>
