<svg width="50" height="50" viewBox="0 0 50 50" fill="none" xmlns="http://www.w3.org/2000/svg">
<path fill-rule="evenodd" clip-rule="evenodd" d="M6.35992 16.1475C6.0175 12.1361 15.5038 10.3162 20.2897 9.90766C25.0756 9.49912 34.7331 9.68491 35.0755 13.6963C35.1072 14.0675 35.1347 14.4331 35.1582 14.7933C36.3105 14.4548 39.0596 14.0688 40.837 15.2318C43.0587 16.6857 44.9994 18.728 44.2282 23.5962C43.4569 28.4645 36.6807 30.5609 36.1624 30.6327C36.9762 31.0049 38.6336 32.0999 38.7534 33.5028C38.9031 35.2564 37.0649 39.9121 22.9537 41.1167C8.84254 42.3212 6.04371 38.3097 5.87297 36.3095C5.70223 34.3093 9.35241 32.1209 10.7101 31.7014C8.79717 28.8407 7.04203 24.1384 6.35992 16.1475ZM21.0756 19.1142C16.8102 19.4783 8.20802 19.368 7.92174 16.0142C7.72527 13.7126 16.1415 11.7522 20.416 11.3873C23.8575 11.0935 33.3964 11.1625 33.6233 13.8203C33.6924 14.6299 33.2476 15.3357 32.4725 15.9458C30.0368 17.8632 24.339 18.8356 21.0756 19.1142ZM21.1948 20.5116C28.8231 19.8604 32.7709 17.7386 33.7913 16.7591C34.302 22.7415 32.7587 34.9253 22.5 35.801C12.2194 36.6786 8.62787 24.9331 8.1172 18.9507C9.63591 19.7135 14.3776 21.0935 21.1948 20.5116ZM29.4269 34.8233C29.3027 35.5239 27.772 37.0346 22.6426 37.4724C18.1051 37.8597 16.0501 36.6552 15.5897 36.0045C14.4875 35.4607 13.004 34.6076 11.536 32.8177C10.1305 33.3793 7.34805 34.8367 7.46219 36.1738C7.60487 37.8453 11.2692 40.6789 22.8321 39.6918C34.395 38.7048 37.5441 35.1792 37.4108 33.6174C37.2775 32.0556 33.3476 31.0938 32.5449 31.1623C31.4789 33.1514 30.3038 34.3249 29.4269 34.8233ZM41.843 25.4006C40.1548 28.5807 35.1757 29.4198 33.4514 29.1806C33.654 28.6596 33.8466 28.1009 34.0253 27.5032C40.3229 26.9932 41.1824 22.835 41.0835 21.3531C40.9846 19.8711 40.2077 18.5298 38.8982 18.062C37.5886 17.5942 36.1185 17.9129 35.2642 18.3722C35.2692 17.7575 35.2617 17.1235 35.2405 16.4698C36.8965 15.6937 38.9463 15.3932 41.1507 17.2901C43.355 19.1871 43.5311 22.2205 41.843 25.4006ZM39.3255 20.4819C38.3288 18.8282 36.9046 19.281 35.2171 20.0598C35.1074 22.337 34.8184 24.321 34.4159 26.0346C38.6597 25.976 40.3223 22.1357 39.3255 20.4819Z" fill="black"/>
<path d="M9.43792 17.9329C12.1549 19.3936 17.853 19.3893 21.0756 19.1142C24.339 18.8356 30.0368 17.8632 32.4725 15.9458C31.2438 15.1177 27.4361 13.7964 20.6709 14.3739C14.1387 14.9315 10.4606 16.9808 9.43792 17.9329Z" fill="#431818"/>
<path d="M33.7913 16.7591C32.7709 17.7386 28.8231 19.8604 21.1948 20.5116C14.3776 21.0935 9.63591 19.7135 8.1172 18.9507C8.62787 24.9331 12.2194 36.6786 22.5 35.801C32.7587 34.9253 34.302 22.7415 33.7913 16.7591Z" fill="white"/>
<path d="M7.92174 16.0142C7.99173 16.8341 8.55875 17.4602 9.43792 17.9329C10.4606 16.9808 14.1387 14.9315 20.6709 14.3739C27.4361 13.7964 31.2438 15.1177 32.4725 15.9458C33.2476 15.3357 33.6924 14.6299 33.6233 13.8203C33.3964 11.1625 23.8575 11.0935 20.416 11.3873C16.1415 11.7522 7.72527 13.7126 7.92174 16.0142Z" fill="white"/>
<path d="M33.4514 29.1806C35.1757 29.4198 40.1548 28.5807 41.843 25.4006C43.5311 22.2205 43.355 19.1871 41.1507 17.2901C38.9463 15.3932 36.8965 15.6937 35.2405 16.4698C35.2617 17.1235 35.2692 17.7575 35.2642 18.3722C36.1185 17.9129 37.5886 17.5942 38.8982 18.062C40.2077 18.5298 40.9846 19.8711 41.0835 21.3531C41.1824 22.835 40.3229 26.9932 34.0253 27.5032C33.8466 28.1009 33.654 28.6596 33.4514 29.1806Z" fill="white"/>
<path d="M22.6426 37.4724C27.772 37.0346 29.3027 35.5239 29.4269 34.8233C30.3038 34.3249 31.4789 33.1514 32.5449 31.1623C33.3476 31.0938 37.2775 32.0556 37.4108 33.6174C37.5441 35.1792 34.395 38.7048 22.8321 39.6918C11.2692 40.6789 7.60487 37.8453 7.46219 36.1738C7.34805 34.8367 10.1305 33.3793 11.536 32.8177C13.004 34.6076 14.4875 35.4607 15.5897 36.0045C16.0501 36.6552 18.1051 37.8597 22.6426 37.4724Z" fill="white"/>
</svg>
